<?xml version="1.0" encoding="UTF-8"?>
<svg id="Layer_2" data-name="Layer 2" xmlns="http://www.w3.org/2000/svg" viewBox="0 0 979.26 747.7">
  <defs>
    <style>
      .cls-1 {
        opacity: .35;
      }

      .cls-1, .cls-2, .cls-3, .cls-4, .cls-5, .cls-6, .cls-7, .cls-8, .cls-9, .cls-10, .cls-11, .cls-12, .cls-13, .cls-14, .cls-15, .cls-16, .cls-17 {
        isolation: isolate;
      }

      .cls-1, .cls-4, .cls-7, .cls-8, .cls-12 {
        fill: #fff;
      }

      .cls-1, .cls-6, .cls-11, .cls-12, .cls-14 {
        font-family: Pixer-Regular, Pixer;
      }

      .cls-1, .cls-11 {
        font-size: 19.51px;
      }

      .cls-2, .cls-3, .cls-5, .cls-6, .cls-13, .cls-14, .cls-15, .cls-16 {
        fill: #87ce34;
      }

      .cls-18 {
        letter-spacing: -.1em;
      }

      .cls-3 {
        opacity: .2;
      }

      .cls-4 {
        opacity: .9;
      }

      .cls-19 {
        fill: #316364;
      }

      .cls-20 {
        letter-spacing: -.05em;
      }

      .cls-5 {
        opacity: .8;
      }

      .cls-6 {
        font-size: 41px;
      }

      .cls-7 {
        font-size: 13.7px;
        opacity: .35;
      }

      .cls-7, .cls-16 {
        font-family: PressStart2P-Regular, 'Press Start 2P';
      }

      .cls-21 {
        stroke-width: 2.5px;
      }

      .cls-21, .cls-9, .cls-10, .cls-17, .cls-22 {
        fill: none;
      }

      .cls-21, .cls-9, .cls-10, .cls-22 {
        stroke: #87ce34;
        stroke-miterlimit: 10;
      }

      .cls-23 {
        letter-spacing: -.05em;
      }

      .cls-9 {
        opacity: .5;
      }

      .cls-10 {
        opacity: .3;
      }

      .cls-11 {
        fill: #6ec836;
        opacity: .6;
      }

      .cls-12 {
        font-size: 84px;
      }

      .cls-13 {
        opacity: .45;
      }

      .cls-14 {
        font-size: 22px;
        opacity: .45;
      }

      .cls-24 {
        opacity: 0;
      }

      .cls-25 {
        fill: #1e4835;
      }

      .cls-15 {
        opacity: .4;
      }

      .cls-16 {
        font-size: 28px;
      }

      .cls-17 {
        opacity: .08;
        stroke: #6ec836;
        stroke-width: .3px;
      }

      .cls-22 {
        stroke-width: 5px;
      }

      .cls-26 {
        fill: #102c31;
      }
    </style>
  </defs>
  <g id="Layer_1-2" data-name="Layer 1">
    <g>
      <rect class="cls-26" width="975.26" height="747.7"/>
      <line class="cls-17" x1="4" y1="166.11" x2="979.26" y2="166.11"/>
      <line class="cls-17" x1="4" y1="328.65" x2="979.26" y2="328.65"/>
      <line class="cls-17" x1="4" y1="491.19" x2="979.26" y2="491.19"/>
      <line class="cls-17" x1="4" y1="653.74" x2="979.26" y2="653.74"/>
      <path class="cls-21" d="M101.53,101.09v-35.76h35.76"/>
      <path class="cls-21" d="M881.73,101.09v-35.76h-35.76"/>
      <path class="cls-21" d="M101.53,653.74v35.76h35.76"/>
      <path class="cls-21" d="M881.73,653.74v35.76h-35.76"/>
      <rect class="cls-22" x="420.11" y="81.59" width="143.04" height="143.04"/>
      <rect class="cls-15" x="413.61" y="75.08" width="13" height="13"/>
      <rect class="cls-15" x="556.64" y="75.08" width="13" height="13"/>
      <rect class="cls-15" x="413.61" y="218.12" width="13" height="13"/>
      <rect class="cls-15" x="556.64" y="218.12" width="13" height="13"/>
      <line class="cls-9" x1="101.53" y1="341.65" x2="426.61" y2="341.65"/>
      <polygon class="cls-5" points="491.63 328.65 507.88 341.65 491.63 354.66 475.37 341.65 491.63 328.65"/>
      <line class="cls-9" x1="556.64" y1="341.65" x2="881.73" y2="341.65"/>
      <line class="cls-10" x1="166.54" y1="432.68" x2="348.59" y2="432.68"/>
      <line class="cls-10" x1="634.67" y1="432.68" x2="816.71" y2="432.68"/>
      <text class="cls-14" transform="translate(373.24 436.96)"><tspan x="0" y="0">C</tspan><tspan class="cls-23" x="11" y="0">A</tspan><tspan x="23.1" y="0">SH PRIZE TOURNAMENT</tspan></text>
      <rect class="cls-3" x="199.05" y="588.72" width="585.15" height="58.52" rx="4" ry="4"/>
      <text class="cls-11" transform="translate(430.19 614.07)"><tspan x="0" y="0">MCSR RANKED</tspan></text>
      <text class="cls-1" transform="translate(310 634.23)"><tspan x="0" y="0">GLEMMEN VGS · FREDRIKS</tspan><tspan class="cls-18" x="222.35" y="0">T</tspan><tspan x="232.11" y="0" xml:space="preserve">AD ·   STFOLD</tspan></text>
      <rect class="cls-13" x="468.87" y="702.5" width="6.5" height="6.5"/>
      <rect class="cls-2" x="481.88" y="702.5" width="6.5" height="6.5"/>
      <rect class="cls-13" x="494.88" y="702.5" width="6.5" height="6.5"/>
      <text class="cls-12" transform="translate(306.83 301.84)"><tspan x="0" y="0">RES</tspan><tspan class="cls-20" x="142.8" y="0">PA</tspan><tspan x="235.2" y="0">WN</tspan></text>
      <text class="cls-6" transform="translate(401.43 399.31)"><tspan class="cls-24" x="0" y="0">O</tspan><tspan x="24.6" y="0">STFOLD</tspan></text>
      <text class="cls-7" transform="translate(579.99 636.05)"><tspan x="0" y="0">Ø</tspan></text>
      <text class="cls-16" transform="translate(401.5 402.72)"><tspan x="0" y="0">Ø</tspan></text>
      <rect class="cls-25" x="436.36" y="97.84" width="110.53" height="110.53"/>
      <rect class="cls-19" x="452.62" y="114.09" width="78.02" height="78.02"/>
      <rect class="cls-5" x="468.87" y="130.35" width="45.51" height="45.51"/>
      <rect class="cls-8" x="481.88" y="143.35" width="19.51" height="19.51"/>
      <rect class="cls-4" x="488.38" y="149.85" width="6.5" height="6.5"/>
      <rect class="cls-5" width="975.26" height="12.4"/>
      <rect class="cls-5" y="735.3" width="975.26" height="12.4"/>
    </g>
  </g>
</svg>